<?xml version="1.0" standalone="no"?><!DOCTYPE svg PUBLIC "-//W3C//DTD SVG 1.1//EN" "http://www.w3.org/Graphics/SVG/1.1/DTD/svg11.dtd"><svg t="1757842547526" class="icon" viewBox="0 0 1024 1024" version="1.1" xmlns="http://www.w3.org/2000/svg" p-id="4471" xmlns:xlink="http://www.w3.org/1999/xlink" width="64" height="64"><path d="M22.28913399 18.75312548m157.30451372 0l664.9690808 0q157.30451374 0 157.30451373 157.30451372l0 664.96908078q0 157.30451374-157.30451373 157.30451375l-664.9690808 0q-157.30451374 0-157.30451372-157.30451375l0-664.96908078q0-157.30451374 157.30451372-157.30451372Z" fill="#110A17" p-id="4472"></path><path d="M146.52394882 652.88694646a231.79177612 231.79177612 0 0 0 54.10917762 149.22478188A232.82855583 232.82855583 0 0 1 349.85790834 390.56379431a234.63398263 234.63398263 0 0 1 35.30413802 2.66345142v26.90264696h-5.80954171A232.82855583 232.82855583 0 0 0 146.52394882 652.88694646z" fill="#6DC5CC" p-id="4473"></path><path d="M583.2942316 144.7754916H482.58359179v521.96497736a104.07123623 104.07123623 0 0 1-190.03457789 43.50899847A104.05336075 104.05336075 0 0 0 453.08899545 637.24587265V115.28089528h128.70369307a195.73686653 195.73686653 0 0 0 1.50154308 29.49459632zM756.97271519 297.61112709v27.6534185a167.40417854 167.40417854 0 0 1-92.05889156-44.68878231 162.43478596 162.43478596 0 0 1-16.588476-18.39390279A169.99612791 169.99612791 0 0 0 756.97271519 297.61112709z" fill="#6DC5CC" p-id="4474"></path><path d="M756.97271519 325.28242109V426.31482013h-3.57510259a299.43271698 299.43271698 0 0 1-171.60492408-53.4120326V603.28239809c0.57201643 6.63181529 0.89377566 13.33513263 0.89377565 20.12782756a232.82855583 232.82855583 0 0 1-382.05333773 178.75512922 232.82855583 232.82855583 0 0 1 178.75512925-382.05333773h5.80954167v105.30464665a104.10698729 104.10698729 0 0 0-92.66665899 184.81492813 104.07123623 104.07123623 0 0 0 189.99882687-43.49112296v-521.96497736h100.71063981c4.96939259 40.00539792 22.36226668 78.08024046 52.1249957 106.3593019a168.61971343 168.61971343 0 0 0 12.8703693 11.06494248 162.43478596 162.43478596 0 0 0 16.58847601 18.39390279 167.40417854 167.40417854 0 0 0 92.14826913 44.68878232z" fill="#FFFFFF" p-id="4475"></path><path d="M245.73304555 623.39235014a104.12486277 104.12486277 0 0 1 139.42900081-97.95781081v-105.30464664a235.76013996 235.76013996 0 0 1 29.49459633 2.60982489v132.27879563a104.08911174 104.08911174 0 0 0-122.16125533 155.32033177A104.10698729 104.10698729 0 0 1 245.73304555 623.39235014zM583.2942316 144.7754916h28.06455531c-1.14403283 42.09683295 11.19007108 84.19366587 36.93080969 117.42424438A168.61971343 168.61971343 0 0 1 635.41922728 251.1347935c-29.762729-28.27906146-47.1556031-66.35390398-52.12499568-106.3593019z" fill="#E72852" p-id="4476"></path><path d="M786.46731151 327.12359893v128.70369305h-3.5751026a299.43271698 299.43271698 0 0 1-171.60492406-53.41203262v230.34385952c0.57201643 6.63181529 0.89377566 13.33513263 0.89377565 20.12782758a232.82855583 232.82855583 0 0 1-411.54793406 149.22478188 232.82855583 232.82855583 0 0 0 382.05333773-178.75512924c0-6.79269492-0.32175923-13.49601225-0.89377565-20.12782754V372.97428957A299.43271698 299.43271698 0 0 0 753.3976126 426.31482013h3.57510259v-101.03239904a178.63000065 178.63000065 0 0 0 29.49459632 1.84117784z" fill="#E72852" p-id="4477"></path></svg>