<?xml version="1.0" encoding="utf-8"?>
<!-- Generator: Adobe Illustrator 28.0.0, SVG Export Plug-In . SVG Version: 6.00 Build 0)  -->
<svg
    version="1.1"
    id="Layer_1"
    xmlns="http://www.w3.org/2000/svg"
    x="0px"
    y="0px"
    viewBox="0 0 108 108"
    style="enable-background:new 0 0 108 108;"
    xml:space="preserve"
    >
<style type="text/css">
	.st0{fill:#FFFFFF;}
</style>
    <g>
	<path class="st0"
          d="M63.4460678,77.5707626c-0.9201279,0-1.8308105-0.1231689-2.7148857-0.3725128
		c-2.6032982-0.7351532-4.8169212-2.5350647-6.2331581-5.06884c-0.5913849-1.0596008-0.2128639-2.3981628,0.8463097-2.989975
		c1.0583153-0.592247,2.398159-0.2137222,2.990406,0.8458786c0.8548927,1.5299683,2.0960312,2.561676,3.590374,2.9835434
		c1.5467033,0.4360275,3.2908211,0.1755219,4.911335-0.7330093c1.537262-0.8630524,2.5603867-2.110199,2.9577942-3.6058273
		c0.4085617-1.5376892,0.1064301-3.2655029-0.8523178-4.8658485l-0.3089981-0.5261536
		c-0.2926865-0.5025482-0.5235748-0.8990936-0.7295761-1.1038055c-0.6995392-0.6952438-0.8497391-1.7711563-0.3682251-2.6316261
		c0.4823837-0.8600426,1.4788971-1.2956429,2.4359283-1.0617485c0.4317398,0.1047134,1.184494,0.1047134,2.0565491,0.1047134
		c3.6118317,0,6.0383224-2.4312057,6.0383224-6.0494766c0-3.6217041-2.4951553-6.0550575-6.2082672-6.0550575
		c-0.9664764,0-1.498642,0-2.1406631,0.1291809c-0.9467392,0.1926918-1.9114914-0.2613602-2.3698425-1.1158257
		c-0.4583435-0.8540344-0.302124-1.9067688,0.3828125-2.591713c0.2025681-0.2029953,0.4291687-0.5918159,0.7158508-1.0840645
		c0.1021347-0.1763878,0.210289-0.3609276,0.3261566-0.5536194c1.7793121-3.1882515,0.9132614-6.7035217-2.1415176-8.4879799
		c-3.27108-1.8351002-6.5404396-0.9514542-8.5017128,2.3239136c-0.457489,0.7643394-0.7664871,1.3797607-1.0935097,2.0312271
		c-0.3725128,0.7433128-1.1475792,1.2419968-1.9792976,1.2419968H55.05336
		c-0.8325768-0.0012856-1.6076431-0.4424667-1.9784393-1.1874924c-0.3330307-0.6682053-0.6471786-1.2990761-1.1183968-2.0861588
		c-0.0291862-0.0476379-0.0557938-0.0965614-0.0806847-0.1467743c-0.7819328-1.565155-1.9647064-2.6213264-3.4195671-3.0539227
		c-1.4746056-0.440321-3.1303139-0.1892605-4.6581345,0.7042561c-1.5733109,0.8836479-2.59729,2.1312218-2.9946976,3.6268539
		c-0.4077034,1.5364037-0.1047134,3.2624969,0.8540344,4.8602676l0.3098564,0.5295868
		c0.2926903,0.5034103,0.5235786,0.9012413,0.7312927,1.1093864c0.6978188,0.6978188,0.844593,1.7754478,0.3596382,2.6346321
		c-0.4858131,0.8583221-1.4823265,1.2904892-2.4419365,1.0514488c-0.4248695-0.1051483-1.2110977-0.1051483-2.0436707-0.1051483
		c-3.7148323,0-6.2108459,2.4324951-6.2108459,6.0524826s2.4951553,6.0520554,6.208271,6.0520554
		c1.2136726,0,2.1973114,0.9836388,2.1973114,2.1973114s-0.9836388,2.1973114-2.1973114,2.1973114
		c-6.1438942,0-10.6028957-4.3933372-10.6028957-10.4466782c0-5.5868378,3.7989483-9.7600174,9.2158413-10.3698578
		c-0.9948006-2.2518158-1.2213974-4.6525536-0.6265793-6.8906364c0.6986771-2.6320572,2.4951515-4.8735733,5.0572548-6.3121262
		c2.5543747-1.495203,5.4417839-1.8930359,8.095726-1.1033764c2.1835785,0.6493225,4.0547295,2.0715675,5.3808403,4.0637417
		c3.2925377-4.3993473,8.7652206-5.570961,13.7237663-2.7878418c4.7791595,2.791275,6.4880829,8.1673965,4.3954849,13.1958961
		c5.4357758,0.5952492,9.25103,4.7757225,9.25103,10.3767242c0,5.5782585-3.7277069,9.7467155-9.0458908,10.3647079
		c0.9965134,2.2561073,1.2213974,4.6589928,0.6265793,6.898365c-0.6995392,2.6307678-2.4942932,4.8714218-5.0538177,6.3091202
		C67.2132568,77.0626373,65.3120651,77.5707626,63.4460678,77.5707626z" />
        <path class="st0"
              d="M33.1531868,81.7469482c-0.7227097,0-1.4299698-0.3562012-1.8496914-1.0093918
		c-0.65662-1.020546-0.3613548-2.3801346,0.659193-3.0367508c11.7264442-7.5395355,15.8764458-14.1898384,21.3182297-24.2468376
		c0.5785103-1.0677567,1.9140663-1.4625893,2.9783897-0.8866501c1.0677567,0.577652,1.4643021,1.9110603,0.8866501,2.9783859
		c-5.6074409,10.3634224-10.2243729,17.7617607-22.805706,25.8519096
		C33.9720306,81.6336517,33.5600319,81.7469482,33.1531868,81.7469482z" />
</g>
</svg>
