<?xml version="1.0" encoding="UTF-8"?>
<svg id="Layer_1" data-name="Layer 1" xmlns="http://www.w3.org/2000/svg" viewBox="0 0 523.56856607 193.96697756">
  <g id="C3YpP6.tif">
    <g>
      <path d="M99.51438368,64.49215822c10.72509469-9.11738244,23.54766925-16.97281816,30.2332142-29.75094095.0614913-1.67924784-19.76552906-.72136457-21.93843093-.92011051-8.55286497-.7822936-5.91559185-10.46721996-1.20391865-10.46721996h12.64023694c.55071401-5.87616654-2.99176486-21.26488134,7.57395975-18.90456745,6.13452805,1.37041351,2.54292903,14.15376608,3.58800372,18.84346269,4.55171312.81472927,8.93039122,1.18110691,10.84403106,6.07993212,2.88628991,7.38876222-7.41819537,16.83318119-6.59023793,17.91833417,5.77033104,1.00473686,15.20917774,9.82935172,7.01215793,14.04877523-4.57315619,2.35403636-6.67312422-2.49094452-10.71257298-3.6017099v36.53324103c0,2.11000454-3.15790131,4.47337019-5.29392131,4.56587565-1.92943947.083559-5.80482332-2.15518376-5.80482332-3.9518716v-32.23521268c-6.14998144,3.2324017-13.67781989,14.78430094-20.34769849,6.14004051v-4.29802836Z" style="fill: #1e56b2;"/>
      <path d="M340.60378092,99.49038912h-3.69958154c-.80180752-.98721361-2.9128699-1.99185701-3.38295024-3.07856013-.11921913-.27560354-.93322823-4.36201593-.93322823-4.59649051v-40.83126939c-3.08006335,2.7863593-6.24146737,10.37984971-11.44207993,7.39828013-2.93536113-1.68287549-3.22640549-5.56332933-2.26563376-8.46383496,1.44471573-4.3615002,9.40142067-13.97109933,12.17942919-19.18342658,1.07106289-2.00961597,2.10397108-4.10145697,3.04935475-6.17352896,2.41892707-5.3017533,4.81071011-15.51176475,7.44852976-19.59897422,3.00948843-4.66309728,11.16346938-5.4154131,11.97162718.32682747.8569065,6.08861698-6.88818717,17.18766048-8.57280022,23.31984432-1.77189622,20.61354577,2.24342363,44.86826967-.03693713,65.04764282-.36686781,3.24648737-1.43770078,4.45484286-4.31572983,5.83349002Z" style="fill: #1e56b2;"/>
      <path d="M385.61535636,23.3538868h24.97217542c.1857954,0,3.04636743,1.27888077,3.37214364,1.55440349,2.96129328,2.50449101,2.16408387,7.9841198-1.37441823,9.64499182-9.29455812.61015081-18.82194999.98556263-28.20614248,1.07773189l-.6141141,7.98210842c3.11740742-.96961289,8.63292193,1.02040349,8.63292193,4.60792845v35.61223496c0,.06512497.8594954.92100608.92489539.92100608h9.86555078c1.73230924,0,1.89587853-7.2810127,2.57678334-9.10013317,2.16392925-5.78120164,10.36567448-4.64197758,11.24005291,1.48135763.89472289,6.26580893-.70117381,16.43885923-7.81424607,18.50815643-4.72771556,1.3753619-22.77023674,1.76524649-26.36507473-1.66459623-.5939776-.56671532-2.14330316-3.46030337-2.14330316-4.00575023v-30.39320052l-8.52664784,18.83238813c-3.61742025,5.19566059-11.77093747,18.43209863-18.35991391,19.19429603-4.19323782.48506396-7.37939611-2.11984376-7.06270097-6.39682955.27749233-3.74754954,8.11303233-9.97992426,10.76486185-13.27148852,9.83857018-12.21205426,12.93486464-27.14258699,15.16864086-42.30452408h-16.95641541c-4.98270386,0-8.71495781-5.05473746-5.87034612-9.53432077.54588827-.85964352,3.15750577-2.74576025,4.02055535-2.74576025h19.11450464c.06539998,0,.92489539-.85588111.92489539-.92100608V5.85477135c0-2.23817923,3.79403528-4.36936696,5.93114124-4.57504701,10.55420578-1.01576129,4.53068589,16.22053239,5.78420031,22.07416246Z" style="fill: #1e56b2;"/>
      <path d="M156.8578976,67.25517645c-.63920011,3.60868788-4.44017092,4.5974308-7.69237996,3.97244713-2.52484303-.48520426-3.40118298-3.94225904-3.74554506-6.09070922-1.51487094-9.45117051-1.24106802-42.96234638.48466035-52.38323026.54866439-2.99520114,2.44327437-5.33389921,5.39337423-6.2953826,5.11145794-1.66590358,28.64734335-1.48864242,34.77112043-.8337326,5.24614467.56105107,9.11998519,2.55410509,9.66534476,8.1814168,1.6235689,16.75285227-1.15643035,36.26501054-.1764937,53.30427841-.12123936,4.35682711-6.42296291,5.52481519-9.08902915,3.20084237-.44581196-.38860808-1.86419032-3.31806256-1.86419032-3.66993408V18.13485237c0-.06512497-.8594954-.92100608-.92489539-.92100608h-25.8970708c-.06539998,0-.92489539.85588111-.92489539.92100608v49.12032408Z" style="fill: #1e56b2;"/>
      <path d="M170.42302992,78.61425139c-1.4316467-.33895857-1.01355122.26248119-1.41237589.77530931-4.48094475,5.76181638-6.75309676,8.61642485-12.94114784,12.86870977-4.64442098,3.19153818-20.94748966,12.67436787-21.45649883,1.38471626-.27858377-6.17889397,9.25424083-7.90900213,13.80343445-10.84761063,18.37766325-11.87128137,15.42333475-27.60262107,16.45094879-46.86064692.24183151-4.53204936-1.80257786-14.80279136,5.26169306-15.0814295,5.91151013-.23316945,6.1685691,5.07575565,6.48541797,9.53624541.62858205,8.84896246-1.01525149,18.7270763-1.27891894,27.65146884.42241574,2.10595824,4.88598473,1.41377441,5.55607878,4.92959345.73516279,3.85721879-.91719082,20.71995378.28261627,22.43669664.69286565.99138618,7.07338907.84721266,8.11522996.02100569,2.0927443-1.65960076-.39740645-10.89611839,5.62723066-12.22055378,9.80305848-2.15507047,8.02128254,16.11645287,3.59175381,20.78677151-3.52330897,3.71483663-15.41168153,3.69717823-20.23144009,2.8939005-2.5106655-.41843625-7.85402216-3.47543416-7.85402216-6.30109757v-11.97307899Z" style="fill: #1e56b2;"/>
      <path d="M274.01131314,82.2982757h32.98793543c.58641794,0,2.9280907,2.11542029,3.31038176,2.83961353,1.99370091,3.77676827-.40531346,7.74520463-4.52960248,8.22637414l-90.66780843.00011246c-6.57460025-.77078113-6.89905898-9.56546394-.56760463-11.03133806l47.16041282-.31621901c2.57689193-7.27834064,5.28592462-14.57999035,7.53782158-21.96607042,1.92716384-6.32097592,3.7875068-18.02861749,6.30234223-23.19635903,2.33323787-4.79457625,10.60140961-4.17588967,11.38360335.97007651.63481244,4.17636094-3.88914401,17.4439289-5.35419888,22.22609156-2.29338363,7.48595413-5.20982188,14.78910543-7.56328275,22.24771834Z" style="fill: #1e56b2;"/>
      <path d="M266.61215005,19.36286047c.24829706.79899906,1.40346502.86773918,2.12669576.95226754,10.26356959,1.19956566,22.67383308-1.09597871,33.17558526.13397092,5.80344285,2.5216933,4.17181877,10.79648178-2.28507664,10.91598675l-79.53070904-.06854414c-4.25327109-.74577792-6.78997812-5.12229709-4.06058551-8.87822428.36516444-.50250412,2.41634452-2.1344507,2.78782858-2.1344507h35.45432312V5.24076729C254.28021157,2.80142387,258.31615466-.02821855,260.76750571.00021252c2.177225.02525172,5.84464434,2.40262028,5.84464434,4.62655073,0,2.96231124-.60187792,12.79930466,0,14.73609722Z" style="fill: #1e56b2;"/>
      <path d="M236.8385954,35.14750129c2.69841895-.61141504,5.49172202.24131063,6.87775242,2.71686705,2.17142668,3.87833428,5.44879637,17.22618239,6.68914913,22.1971561.83742327,3.35614932,2.94474463,10.20000148,2.67158159,13.33197806-.50815129,5.82625656-8.41891708,7.43748218-11.24391566,1.34435104-3.94267395-8.5038023-4.38881664-22.18385659-8.8542837-31.09080077-1.17761799-3.40640867.10452114-7.64868926,3.85971622-8.49955148Z" style="fill: #1e56b2;"/>
      <path d="M395.919295,5.06741439c10.02641305-2.28126373,21.03567671,17.67517604,9.12397273,17.72410852-4.23290636.0173885-10.17708702-6.76223991-11.94088644-10.26619779-1.47412622-2.92849409-.59711011-6.68113356,2.81691371-7.45791073Z" style="fill: #1e56b2;"/>
    </g>
  </g>
  <g id="RF2CRW.tif">
    <g>
      <path d="M15.83015102,119.83167362h43.81178418c5.17111539,1.88589303,7.93220576,6.64842493,4.59764212,11.60772527-.47625017.70829887-3.06499542,3.09328759-3.67204105,3.09328759H15.21308363c.2003364.60138503-.61706738,1.32883076-.61706738,1.53135551v13.16965735h41.03498095c2.85658794,0,5.93607433,4.80290628,5.91463434,7.66245372-.01781292,2.37578871-2.90289997,7.03855914-5.29756696,7.03855914H15.21308363c-.16901905,1.82452327-.74984446,14.70101286.92560107,14.70101286h43.81178418c.49510333,0,3.51287922,1.71842588,4.02413896,2.30156633,3.71944203,4.24237813,1.50718686,11.159532-4.05660803,12.36900564-16.66581033-1.40992067-36.80078483,1.98607588-53.04953277.04454181-3.47846361-.41563545-5.33594783-2.41700827-6.46500059-5.52698075-.5374401-19.95768825-.53847018-41.69072995,0-61.86676244-.93488178-4.0078581,1.95131866-5.48383428,5.55360644-6.12542202h9.87307812Z" style="fill: #1e56b2;"/>
      <path d="M276.84965392,119.83167362c2.01028796,1.11016611,5.55360644,3.97179826,5.55360644,6.43169312v52.3723583h36.09844189c.60695016,0,4.09415664,2.1082219,4.64152131,2.74348922,3.85594046,4.47517551.23282798,10.49516245-4.78762001,11.81249628-13.85830171-.81376846-30.08561287,1.59043112-43.66752344.14685184-4.86572021-.51716236-7.49277071-3.37809439-7.73660395-8.24622865,1.55048144-18.27411961-1.98790062-39.71407339.02319537-57.60577275.49674383-4.41927754,2.43349686-5.77807639,6.17257808-7.65488736h3.7024043Z" style="fill: #1e56b2;"/>
      <path d="M161.94763634,130.42465054c8.21923282-.83908876,21.07696536.94563099,27.30954863,6.83359963,4.06607398,3.8412509,3.14690997,11.94515896-2.95231337,13.053513-5.58429568,1.01478112-6.10037657-2.03304114-10.22285228-3.65021418-3.78945429-1.48653474-15.77021391-2.03706504-18.93848811.4330135-2.43023903,1.89468489-2.3213052,4.28365256.61288496,5.50888506,10.52107937,4.39329684,31.539443,1.16200571,35.36738704,16.95663697,6.59858345,27.22667607-41.70707756,29.61833963-52.92470448,15.17405279-4.01259341-5.16678354.95790017-12.95792631,8.18870456-11.18951155,8.36786507,2.04650206,10.4807003,6.17404349,21.39470088,5.08570121,6.29510769-.62774707,14.10304596-5.16401615,3.90284087-8.1507068-10.20960754-2.98944375-25.71092295-.85846676-31.37278708-12.96031524-6.86523131-14.67396378,5.69161876-25.67118817,19.63507838-27.09465438Z" style="fill: #1e56b2;"/>
      <path d="M482.33309238,154.13403695h9.56454443c1.52968826,0,17.10790365-20.6659887,20.35958968-22.66815822,6.83752155-3.79897458,13.07436089,2.3706678,10.32131429,9.6331588-1.61777516,3.40452537-16.72700989,18.61851468-16.78810853,20.67511888-.07216356,2.4290535,13.38546498,15.95213098,15.6711338,19.36681951,2.53554617,3.7879943,3.38628903,7.4485585-.90988975,10.625264-4.52063981,3.34267777-7.94449619,1.26009769-11.38321491-2.09774414-2.65963227-2.59707909-16.18877132-20.22090376-17.88789197-20.22090376h-8.94747705v16.84491056c0,6.77631008-10.99093932,10.03431866-14.48925964,3.35724496l-.19421679-55.29811634c2.97263135-5.00411327,9.43826451-5.66560085,12.83677097-.74222732.54663094.79189736,1.84670546,3.5806063,1.84670546,4.29226472v16.23236836Z" style="fill: #1e56b2;"/>
      <path d="M204.509965,130.36494569c2.57051077-.35050413,5.23327536.77018664,6.95557039,2.61157561,2.60831853,2.29537391,14.9980149,22.04967614,16.34989706,22.3812732.84562392.20741926,1.613388-1.03359713,2.11722138-1.55030667,4.91076483-5.03626613,12.21819412-19.71971345,17.34754498-22.59385813,6.72893264-3.77044318,13.94156671,4.06367592,9.94720054,10.48588294l-20.61882056,27.92393872c-2.8863576,5.86243302,2.15003586,15.28509099-2.66960098,21.23878472-2.60478575,3.21768986-7.41291475,3.20366678-10.47255055.64370524-5.41923425-4.53421002-1.25879035-14.85833325-3.05152186-20.85998451-.91521889-3.06394158-11.17669029-15.04521928-13.79651658-18.76939503-1.64280303-2.33530262-7.2903476-9.75272852-7.84533205-11.80859079-1.21000106-4.48227975.87953057-9.04069354,5.73690823-9.70302529Z" style="fill: #1e56b2;"/>
      <path d="M400.36864781,142.90674291c-1.2924508,1.67227508-4.10348228,7.85319594-4.48093101,8.12551709-.32428162.23397296-1.32683974-.62654226-4.56739354-.62654226s-4.1898694,1.21805457-4.65913508.9950921c-.42484663-.20180875-3.67652405-6.43657544-4.92832653-7.96812738-28.90439-35.36411765-75.45863691,7.26164593-50.56783531,37.94615351,16.86860214,20.79497387,48.58002666,13.46568128,55.86203447-11.90056997.58001162-2.02038763-.01383853-6.47039877,2.55647041-7.26666098,5.44287851-1.68607591,4.47863087,5.4117701,5.55792307,8.95111548,8.14576584,26.71273642,46.37155569,30.17199179,58.92506293,4.83420945,16.83432633-33.97800224-30.13662246-63.57529912-53.69786941-33.09018703ZM357.98918744,178.62583582c-22.99364098,1.94218297-25.17254954-32.08668623-2.88256197-33.51620259,21.53267686-1.38094952,24.59521513,31.68220147,2.88256197,33.51620259ZM440.25294962,170.24771842c-8.81054317,15.84526738-34.01284366,7.99531425-31.29702277-11.46622113.660441-4.73285258,6.73276523-12.12349473,11.50117567-13.0847635,15.21303133-3.0668746,27.40213653,10.87146601,19.79584711,24.55098462Z" style="fill: #1cbe2a;"/>
      <path d="M133.26515222,183.64646949l-25.19408033-50.32828169c-7.32167574-5.61274929-10.80574242-1.88878963-14.59629293,4.47832922-6.4415905,10.81999572-15.7780355,29.5921687-20.78645205,41.23274776-2.00104386,4.65061326-4.73179678,10.06596554,1.19697626,13.33872126,9.92874916,5.48084963,11.28062646-9.33282512,15.20096504-10.53692803,1.06794234-.32797693,4.65412002-.67563699,6.01127632-.77073446,3.46694762-.24294727,19.16949338-.45297618,21.16654028,1.40146222.97812387.9082525,2.68203527,6.06591401,4.48225076,8.10387318,5.6090917,6.34969813,15.03765531,1.05433005,12.51881665-6.91918945ZM107.77318528,166.99743617h-11.72421355c.82344908-1.83336009,4.38436296-12.13058368,6.47085126-11.63812809.74328365.17545144,5.58186712,9.88199228,5.2533623,11.63812809Z" style="fill: #1e56b2;"/>
    </g>
  </g>
</svg>