<?xml version="1.0" encoding="UTF-8"?>
<svg id="logo" xmlns="http://www.w3.org/2000/svg" version="1.1" viewBox="0 0 571.6814159 189.380531">
  <!-- Generator: Adobe Illustrator 29.1.0, SVG Export Plug-In . SVG Version: 2.1.0 Build 142)  -->
  <path d="M68.999527,103.2061252c-.1470326.0999874-.7453447-.9780501-.8433206-1.1406628-6.751389-11.205429-12.8047653-23.0580506-19.678367-34.1561855-7.378765-11.9137729-23.4770658-2.3242356-17.2179808,9.5468995l29.2460314,50.6154042c3.7198444,5.9009978,12.2973796,6.2119913,16.417827.5219224l29.7719959-51.4592756c5.8609107-11.591845-10.0350352-20.7356497-17.1201208-9.7230067l-20.5760652,35.7949044Z" style="fill: var(--logo-color-2, #e5232b);" />
  <path d="M154.0685888,56.7687158h18.0818345c-11.5635965-24.3704069-34.718629-42.7739155-61.2054793-48.3129044C77.9720996,1.560457,41.8635355,13.57977,21.5486868,40.6163773l-2.1336216,3.1388494c2.1756831-2.3549347,4.1966747-4.8915344,6.5032744-7.1288223,17.0338094-16.521954,41.6844681-24.7452615,65.3422232-22.1845715,26.224338,2.8384943,50.7242278,18.8342626,62.8080259,42.3268828ZM134.422684,37.2373307c-30.5473644-26.8883277-74.3110047-26.0656451-104.4631445.9681975C6.3620153,59.3626254-1.7912976,93.0333468,9.4115096,122.8657036c14.0538258,37.4244365,54.3671509,58.3814266,93.3177668,47.9713901,15.7039645-4.1970798,30.8336176-13.923872,40.721274-26.8115934.0829582-.1081289.3698466-.2624162.1394607-.4085098-17.6849617,19.4014504-44.9757395,27.5844418-70.5364786,20.9470744-41.8801077-10.8750244-64.8773533-56.5004232-47.910589-96.7922525,13.7757784-32.7140343,49.6965024-50.4538653,84.2985291-41.2375146,13.2746341,3.5357375,25.1795869,10.9814791,34.4225057,21.0558416.2305566-.146254-.0567904-.3004283-.1394501-.4085204-2.6812629-3.5062232-5.9991403-7.03719-9.3018442-9.9442881ZM159.8218997,84.4394019h-19.1777032v21.8488833c0,.0417123-.1734067.1051234-.1369836.2054754h19.4516704c-.9851857,7.6425415-3.1865979,15.1582409-6.3012082,22.1899675l23.6145809.1468953c2.4722974-7.2084432,4.1718665-14.7255445,4.8779695-22.3368627h18.4927852v-21.9173751l-18.4934624-.1363244c-.6066999-7.5527318-2.5817763-14.929572-4.6699332-22.1784753-1.0203909-.0595934-2.0528676.029746-3.0746124-.0078766-.3636576-.0133906-.6934567-.1392602-1.0836919-.1491604-6.5449986-.1660461-13.1173012.1370369-19.6630114.007275,2.9509067,7.1404706,5.4893073,14.5588168,6.1636001,22.3275781ZM137.8469898,64.9082446c-4.5503172-3.9902444-11.5663014-2.8856844-14.7936167,2.1458093-9.185479,16.6722902-19.4959007,32.7714696-28.5962084,49.4844404-.8539548,1.568312-1.8311303,3.1393034-2.0145407,4.971624-1.0082904,10.0731033,10.879657,14.9996515,17.3772705,7.5144504l30.4367916-52.5752666c1.8335157-3.8958281.806175-8.7210095-2.4096964-11.5410575ZM172.1504232,134.1644467h-17.8763591c-11.497071,20.8683911-31.5443422,36.1461508-54.9970994,41.0284003-27.6078468,5.7472302-56.1493625-3.1163722-75.5568197-23.2766677l-3.6201622-3.9163416,2.2730765,3.1363781c14.1391963,17.9394277,37.1998356,31.2216458,60.2599857,32.6148913,8.758068.5291439,17.8744128.3365999,26.5335304-1.1343541,27.1639545-4.614434,51.2791156-23.7323563,62.9838478-48.4523063Z" style="fill: var(--logo-color-1, #05519b);" />
  <path d="M248.3713035,36.1530227h-8.578618v25.0550113h-2.7233708v-18.1104158h-8.578618l.005705,55.0858793c-.2927743,3.0900928-1.1323964,6.0599578-2.8652444,8.6409972h8.6467023c1.8321611-2.6469502,2.5522396-5.8776963,2.7900627-9.0566003l.0013924-29.7514335h2.7233708v45.7526293h8.578618v-45.7526293h2.4510337v-6.808427h-2.4510337v-25.0550113ZM270.5667755,36.1530227h-9.5317978l-7.4892697,27.6422135h4.3573933v41.1909832c0,3.7880712,5.282829,8.7828708,9.0552079,8.7828708h27.5741293v-6.808427h-8.4424495v-14.9785394h8.4424495v-6.808427h-8.4424495v-14.1615281h8.4424495v-6.9445955h-8.4424495v-14.0253596h8.4424495v-6.9445955h-6.3318371l-3.3361292-6.808427h-9.2594607l3.4042135,6.808427h-9.7360506c-.3866573,0-.058998.842296-.0671864,1.0214781-.0782111,1.7114385-.3449268,3.7415736-.1439993,5.4534604.0232687.1982471.0168868.3501372.2111857.469657h8.2381966v14.0253596h-8.3062809c.0743144.1737859-.1361685.4033695-.1361685.4765899v6.2637528l.2042528.2042528h8.2381966v14.1615281h-8.4424495v6.808427h8.4424495v14.9785394h-10.9615674l-.2042528-.2042528v-42.7569214c0-.0414656.1723875-.104514.1361685-.2042528h-3.4042135l7.4892697-27.6422135ZM385.4930229,36.1530227l-69.0374496,3.9488876v6.9445955l69.0374496-4.0850562v-6.808427ZM476.3174388,36.1530227h-69.0374496l-.0065087,67.3418515c-.3065865,4.6206653,4.5377351,10.274216,9.1978851,10.274216h59.8460731v-6.808427h-60.4588316v-63.9992136h60.4588316v-6.808427ZM541.6783378,42.9614497l-2.2467809-6.808427h-8.7828708l2.1786966,6.808427h-27.6422135v10.2126405l-6.9445955-3.1318764v8.578618l6.9548312,3.4682285-.0364417,16.8627621-6.9183894,3.4985039v8.578618l6.6770468-3.1997115.249317.1541726c-.166899,5.3379852.2838965,10.8761871.0238386,16.1914098-.1277542,2.6111187-.6823454,5.2363514-1.7924115,7.6032177-.3121392.6655385-.836572,1.2806845-1.0727347,1.9910575h8.6467023c1.6043321-2.4983909,2.2864584-5.448425,2.6608738-8.3687779l-.0055873-55.4942672h53.6504046v-6.9445955h-25.5996854ZM434.1051915,46.5018317h-9.7360506l-4.1531405,6.8765112v6.8765112h23.8294944v9.5317978h-23.8294944v6.9445955l21.5145921.0013615-21.3784235,26.6876722h10.6892304l21.5146293-26.6890338h23.7614102v-6.9445955h-23.6933259v-9.5317978h23.6933259v-6.808427h-46.1611349l3.9488876-6.9445955ZM330.2085958,55.3527868l-3.8808034-6.808427h-9.7360506l3.8127191,6.808427h9.8041348ZM356.2167869,55.3527868l-3.8808034-6.808427h-9.7360506l3.8127191,6.808427h9.8041348ZM385.3568543,48.5443598h-9.7360506l-3.8808034,6.808427h9.8041348l3.8127191-6.808427ZM567.2780232,54.2634385h-49.2930113v6.808427h39.2165394l-20.2145515,19.6012848c-.1112138,7.4973824.3579223,15.2046737.0680963,22.6855354-.0876288,2.2618346-.3234255,4.5575108-1.0588732,6.7027335-.4470307,1.3039408-1.1171635,2.5250391-1.8071547,3.7076712h8.6467023c1.6174185-2.488313,2.2954671-5.3176901,2.6535401-8.239943l.0723301-23.2124902,21.7163826-21.3128759v-6.7403427ZM385.4930229,58.0761576h-69.0374496v11.1658202h8.578618v-4.3573933h51.8802136v4.3573933h8.578618v-11.1658202ZM337.0170228,69.2419778h-8.5105337l-.9531798,2.5872023h-11.097736v6.808427h9.2594607l-9.2594607,35.2676518h8.7147865l9.4637135-35.2676518h50.8589495v-6.808427h-49.1568428l.6808427-2.5872023ZM382.9058206,81.3609779h-46.2973035v6.9445955h37.7186855v3.9488876l-14.9958673,4.8316059-22.7228182-7.5549767v7.7616068l10.6213728,3.811374-14.9787661,4.6310755v8.0339438l27.0338581-8.7216314,26.2080409,8.7216314v-8.0339438l-14.0243413-4.6314506,11.4371391-3.8109988v-15.9317191ZM476.3174388,103.4202813l-14.3657809-17.9742472h-10.8253989l14.3657809,17.9742472h10.8253989Z" style="fill: var(--logo-color-1, #05519b);" />
  <g>
    <path d="M255.6396021,134.1111741l3.7653833,13.2775346,3.7885798-13.046269.102932-.1708137c.5225533-.0439627,3.1615158-.201015,3.3648428.0729476l3.8957543,13.1429448,3.6972155-13.2763442h3.695567l-5.351204,19.1486856-4.2167381-.0000015-3.5020389-11.895246-3.3740482,11.8894813-3.8870383.028784-5.6747743-19.1717034h3.695567Z" style="fill: var(--logo-color-1, #05519b);" />
    <path d="M505.2956834,134.1111741c3.6272095.151497,7.4143495-.2006906,11.0239055-.005641,4.2633639.2303795,7.3850967,1.8293633,6.9051299,6.642681-.2723441,2.7311857-2.5542462,4.1477326-5.0621085,4.5172143l5.4740352,8.0079449h-4.2430584l-5.2011684-7.8017525h-5.3380412v7.8017525h-3.5586941v-19.1621992ZM508.8543775,142.0497995h8.5545532c.3711825,0,1.4912839-.4100859,1.7826548-.6810577.7386338-.6869215.731669-2.3367727.0663156-3.0841413-.1838872-.2065541-1.223835-.7516051-1.4383518-.7516051h-8.9651718v4.5168041Z" style="fill: var(--logo-color-1, #05519b);" />
    <polygon points="542.3882262 134.1111741 542.3882262 137.5329954 531.5752709 137.5329954 531.5752709 142.0497995 541.1563705 142.0497995 541.1563705 145.4716208 531.5752709 145.4716208 531.5752709 149.9884249 542.3882262 149.9884249 542.3882262 153.2733733 528.0165768 153.2733733 528.0165768 134.1111741 542.3882262 134.1111741" style="fill: var(--logo-color-1, #05519b);" />
    <polygon points="296.5645847 134.1111741 296.5645847 137.3276861 296.3592754 137.5329954 285.6147566 137.5329954 285.6147566 142.0497995 295.3327291 142.0497995 295.3327291 145.4716208 285.6147566 145.4716208 285.6147566 149.9884249 296.5645847 149.9884249 296.5645847 153.2733733 282.1929353 153.2733733 282.1929353 134.1111741 296.5645847 134.1111741" style="fill: var(--logo-color-1, #05519b);" />
    <polygon points="382.3838627 134.1111741 382.3838627 137.5329954 371.5709074 137.5329954 371.5709074 142.0497995 381.152007 142.0497995 381.152007 145.4716208 371.5709074 145.4716208 371.5709074 149.9884249 382.3838627 149.9884249 382.3838627 153.2733733 368.1490861 153.2733733 368.1490861 134.1111741 382.3838627 134.1111741" style="fill: var(--logo-color-1, #05519b);" />
    <polygon points="445.6191201 134.1111741 445.6191201 142.0497995 455.3370926 142.0497995 455.3370926 134.1111741 458.8957867 134.1111741 458.8957867 153.2733733 455.3370926 153.2733733 455.3370926 145.4716208 445.6191201 145.4716208 445.6191201 153.2733733 442.060426 153.2733733 442.060426 134.1111741 445.6191201 134.1111741" style="fill: var(--logo-color-1, #05519b);" />
    <polygon points="350.3556154 134.1111741 350.3556154 142.0497995 360.0735879 142.0497995 360.0735879 134.1111741 363.4954091 134.1111741 363.4954091 153.2733733 360.0735879 153.2733733 360.0735879 145.4716208 350.3556154 145.4716208 350.3556154 153.2733733 346.7969213 153.2733733 346.7969213 134.1111741 350.3556154 134.1111741" style="fill: var(--logo-color-1, #05519b);" />
    <path d="M482.8485357,153.2733733l7.4518775-19.1710566,3.7561825.025181,7.269775,19.1458755h-3.695567l-1.6558049-4.5030886-7.7728602.0026701-1.6580358,4.5004185h-3.695567ZM494.619601,145.4716208l-2.5989229-6.4326856-2.4653727,6.4326856h5.0642955Z" style="fill: var(--logo-color-1, #05519b);" />
    <path d="M404.2835189,153.2733733h-3.6271306l-1.8334716-4.4321169-7.6846602-.0217194-1.8423149,4.4538363h-3.6271306l7.3856651-19.0992317c.5827979-.0401048,3.6719955-.2137663,3.9086335.0716171l7.3204093,19.0276146ZM392.5124537,145.4716208h4.9274227l-2.3966532-6.4339128-2.5307694,6.4339128Z" style="fill: var(--logo-color-1, #05519b);" />
    <path d="M326.4028664,153.2733733h-3.6271306l-1.8422888-4.4538624-7.6847222.0216646-1.6281265,4.4321978h-3.8324398l7.3204093-19.0276146c.2351708-.2836139,3.3258024-.1152753,3.9055726-.0685562l7.3887259,19.0961709ZM319.5592238,145.4716208l-2.3284865-6.4327005-2.5989361,6.4327005h4.9274227Z" style="fill: var(--logo-color-1, #05519b);" />
    <path d="M476.9855635,140.6636709c-1.1453886-2.5329659-3.2760377-3.3971482-5.9752327-3.1293703-4.3968374.4361952-5.2571674,6.0999867-3.8693142,9.4784992,1.7101442,4.1630796,8.4057232,3.9539473,9.8251524-.3105249l3.4186018.8237952c-1.6562139,4.2806578-5.0863313,6.1297183-9.6473852,5.7452074-9.9700542-.8405064-10.4749649-17.4000006-.5358988-19.0095421,4.5101357-.7303755,8.4722269,1.2538298,10.1793947,5.5311938l-3.395318.8707417Z" style="fill: var(--logo-color-1, #05519b);" />
    <polygon points="438.2279861 134.1111741 438.2279861 137.5329954 432.2055806 137.5329954 432.2055806 153.2733733 428.6468865 153.2733733 428.6468865 137.5329954 422.7613539 137.5329954 422.7613539 134.1111741 438.2279861 134.1111741" style="fill: var(--logo-color-1, #05519b);" />
    <polygon points="411.6746529 134.1111741 411.6746529 149.9884249 422.4876082 149.9884249 422.4876082 153.2733733 408.2528316 153.2733733 408.2528316 134.1111741 411.6746529 134.1111741" style="fill: var(--logo-color-1, #05519b);" />
    <rect x="300.3970246" y="134.1111741" width="3.4218213" height="19.1621992" style="fill: var(--logo-color-1, #05519b);" />
    <rect x="330.3721791" y="134.1111741" width="3.4218213" height="19.1621992" style="fill: var(--logo-color-1, #05519b);" />
  </g>
</svg>
