<?xml version="1.0" encoding="UTF-8"?>
<svg id="Layer_1" xmlns="http://www.w3.org/2000/svg" version="1.1" viewBox="0 0 108 108">
  <!-- Generator: Adobe Illustrator 29.1.0, SVG Export Plug-In . SVG Version: 2.1.0 Build 142)  -->
  <defs>
    <style>
      .st0 {
        fill: #fff;
      }
    </style>
  </defs>
  <rect width="108" height="108"/>
  <g>
    <path class="st0" d="M66.8,89.7c-1.4,0-2.8-.2-4.1-.6-4-1.1-7.3-3.9-9.5-7.7-.9-1.6-.3-3.7,1.3-4.6,1.6-.9,3.7-.3,4.6,1.3,1.3,2.3,3.2,3.9,5.5,4.5,2.4.7,5,.3,7.5-1.1,2.3-1.3,3.9-3.2,4.5-5.5.6-2.3.2-5-1.3-7.4l-.5-.8c-.4-.8-.8-1.4-1.1-1.7-1.1-1.1-1.3-2.7-.6-4,.7-1.3,2.3-2,3.7-1.6.7.2,1.8.2,3.1.2,5.5,0,9.2-3.7,9.2-9.2s-3.8-9.2-9.5-9.2-2.3,0-3.3.2c-1.4.3-2.9-.4-3.6-1.7-.7-1.3-.5-2.9.6-4,.3-.3.7-.9,1.1-1.7.2-.3.3-.6.5-.8,2.7-4.9,1.4-10.2-3.3-12.9-5-2.8-10-1.5-13,3.5-.7,1.2-1.2,2.1-1.7,3.1-.6,1.1-1.8,1.9-3,1.9h0c-1.3,0-2.5-.7-3-1.8-.5-1-1-2-1.7-3.2,0,0,0-.1-.1-.2-1.2-2.4-3-4-5.2-4.7-2.2-.7-4.8-.3-7.1,1.1-2.4,1.3-4,3.3-4.6,5.5-.6,2.3-.2,5,1.3,7.4l.5.8c.4.8.8,1.4,1.1,1.7,1.1,1.1,1.3,2.7.5,4-.7,1.3-2.3,2-3.7,1.6-.6-.2-1.8-.2-3.1-.2-5.7,0-9.5,3.7-9.5,9.2s3.8,9.2,9.5,9.2,3.4,1.5,3.4,3.4-1.5,3.4-3.4,3.4c-9.4,0-16.2-6.7-16.2-15.9s5.8-14.9,14.1-15.8c-1.5-3.4-1.9-7.1-1-10.5,1.1-4,3.8-7.4,7.7-9.6,3.9-2.3,8.3-2.9,12.3-1.7,3.3,1,6.2,3.2,8.2,6.2,5-6.7,13.4-8.5,20.9-4.3,7.3,4.3,9.9,12.5,6.7,20.1,8.3.9,14.1,7.3,14.1,15.8s-5.7,14.9-13.8,15.8c1.5,3.4,1.9,7.1,1,10.5-1.1,4-3.8,7.4-7.7,9.6-2.7,1.5-5.6,2.3-8.5,2.3Z"/>
    <path class="st0" d="M20.6,96.1c-1.1,0-2.2-.5-2.8-1.5-1-1.6-.6-3.6,1-4.6,17.9-11.5,24.2-21.6,32.5-37,.9-1.6,2.9-2.2,4.5-1.4,1.6.9,2.2,2.9,1.4,4.5-8.6,15.8-15.6,27.1-34.8,39.4-.6.4-1.2.5-1.8.5Z"/>
  </g>
</svg>